<svg width="282" height="214" fill="none" xmlns="http://www.w3.org/2000/svg"><g style="mix-blend-mode:normal"><path d="M101.38 42.8l-.12.12c-.86.92-1.84 1.35-2.76 1.35l1.71-3c1.11-1.89.07-3.73-1.65-3.73-1.41 0-2.52.55-3.56 2.39l-.92 1.59-.74 1.28-.12.12c-1.35 1.53-2.64 2.75-3.44 2.75-.43 0-.61-.3-.18-.97l3.92-6.85H95l.55-.86h-1.53l1.71-3h-1.84l-1.72 3h-1.65l-.55.86h1.65l-3.68 6.36c-.8 1.34-.25 2.63 1.23 2.63 1.04 0 2.27-.8 3.37-1.9 0 2.32 3.26 2.81 5.22.31h.43c1.1 0 2.82-.68 3.74-1.78 0-.3-.3-.55-.55-.67zm-3.93.12h-.06c-.61 0-1.1.49-1.1 1.1 0 .25.06.43.18.61v.07c-.86 1.46-2.95 1.22-1.9-.74l1.41-2.38.86-1.47c1.29-2.2 3.07-1.35 1.96.55l-1.35 2.26zm29.4-.12l-.12.12c-1.35 1.53-3.01 2.75-4.3 2.75-1.1 0-1.78-.73-.98-2.2l.18-.3c1.17.49 3.44.24 4.79-2.14l.25-.43c.98-1.71.06-2.94-1.48-2.94-1.47 0-2.64.8-3.43 2.14l-1.78 3.06-.13.12c-1.35 1.53-2.64 2.75-3.43 2.75-.43 0-.62-.3-.19-.97l2.64-4.65c.8-1.41.06-2.39-.98-2.39-.8 0-1.66.43-2.58 1.41l2.95-5.08h-1.84l-5.1 8.75-.12.12c-1.35 1.53-2.64 2.75-3.44 2.75-.43 0-.61-.3-.18-.98l3.93-6.84h1.47l.55-.86H112l1.72-3h-1.85l-1.71 3h-1.66l-.55.86h1.65l-3.68 6.36c-.8 1.34-.24 2.63 1.23 2.63.74 0 1.53-.37 2.33-.98l-.49.79h1.84l2.76-4.83c2.83-3.55 4.05-3.06 3.32-1.71l-2.4 4.16c-.79 1.34-.24 2.63 1.23 2.63 1.11 0 2.33-.86 3.44-1.96.06 1.16 1.04 1.96 2.51 1.96 2.09 0 4.18-1.59 5.65-3.37.06-.36-.25-.61-.49-.73zm-3.5-2.57c1.04-1.83 2.95-1.53 1.84.37l-.24.43c-.86 1.46-2.09 1.46-2.76 1.22l1.16-2.02zm70.46 2.57l-.13.12c-.67.8-1.47 1.47-2.21 2.02.62-1.77.43-4.4 1.6-6.79l-1.35-.73c-.74 1.04-2.39 3.42-4.11 5.38l-.13.12c-1.35 1.53-2.64 2.75-3.43 2.75-.43 0-.62-.3-.19-.97l3.93-6.85h-1.84l-3.25 5.68c-1.41 1.29-2.46 1.96-2.83 1.84-.43-.19 0-.86.25-1.29l3.56-6.23h-1.84l-2.89 4.95-.12.12c-.86.92-1.84 1.35-2.76 1.35l1.72-3c1.1-1.89.06-3.73-1.66-3.73-1.41 0-2.52.55-3.56 2.39l-.92 1.59-.74 1.28-.12.12c-1.35 1.53-3.01 2.75-4.29 2.75-1.11 0-1.78-.73-.99-2.2l.19-.3c1.16.49 3.43.24 4.78-2.14l.25-.43c.98-1.71.06-2.94-1.47-2.94-1.48 0-2.64.8-3.44 2.14l-1.78 3.06-.12.12c-1.54 1.78-2.83 2.88-4.3 3.49l4.11-7.03h-1.1c0-.74-.8-1.78-1.9-1.78-.99 0-2.4.8-3.13 2.14l-1.78 3.06-.13.12c-1.35 1.53-2.64 2.75-3.43 2.75-.43 0-.62-.3-.19-.97l1.84-3.18c.62-1.1.31-1.78-.24-2.51l-1.04-1.22c-.25-.31-.25-.74.12-1.04l-.98-1.04c-1.05.91-1.11 1.95-.49 2.81l.18.18c-.8 1.17-1.9 2.69-3.13 4.1l-.12.12c-.86.92-1.84 1.35-2.77 1.35l1.72-3c1.11-1.89.06-3.73-1.65-3.73-1.42 0-2.52.55-3.56 2.39l-.92 1.59-.74 1.28-.12.12c-1.54 1.78-2.83 2.88-4.3 3.49l4.11-7.03h-1.1c0-.74-.8-1.78-1.9-1.78-.99 0-2.4.8-3.13 2.14l-2.58 4.47c-.8 1.34-.25 2.63 1.23 2.63.49 0 1.1-.25 1.78-.62l-.5.86c-2.45.73-4.05 1.77-4.05 3.12 0 1.77 2.7 2.14 4.05-.12l1.42-2.39c1.47-.43 2.88-1.34 4.41-2.75 0 2.32 3.26 2.81 5.22.31h.43c1.11 0 2.82-.68 3.74-1.78.86-1.04 1.6-1.95 3.07-3.91l.25.31c.24.3.31.67.12 1.03l-1.96 3.37c-.8 1.34-.25 2.63 1.22 2.63.93 0 1.97-.61 2.95-1.47 0 .86.55 1.47 1.6 1.47.49 0 1.1-.25 1.78-.61l-.43.73c-2.46.73-4.05 1.77-4.05 3.12 0 1.77 2.7 2.14 4.05-.12l1.41-2.39c1.47-.49 2.94-1.34 4.48-2.81.06 1.16.98 1.96 2.51 1.96 1.48 0 3.01-.86 4.24-1.96-.06 2.38 3.25 2.87 5.22.37h.42c.56 0 1.35-.19 2.03-.55-.49 1.28-.06 2.14.98 2.14.98 0 2.15-.92 3.01-1.78-.18.98.43 1.78 1.59 1.78 1.54 0 3.26-1.59 4.79-3.37 1.05-1.22 1.97-2.51 2.64-3.36-.74 1.89-.31 5.32-2.09 5.32-.61 0-.86-.67-.86-.67l-1.16.61s.31 1.47 2.02 1.47c.19 0 .31 0 .5-.07h.06c1.9-.24 3.74-1.71 5.09-3.3-.06-.3-.37-.61-.67-.67zm-26.33-2.57c1.04-1.83 2.94-1.53 1.84.37l-.25.43c-.86 1.46-2.08 1.46-2.76 1.22l1.17-2.02zm-35.11 9.54c-.37.67-.98.61-.98.06 0-.49.43-1.04 1.84-1.59l-.86 1.53zm.86-4.1c-.43 0-.61-.3-.18-.97l2.58-4.47c.98-1.71 2.94-1.28 2.02.37l-1.41 2.44c-1.11 1.78-2.27 2.63-3.01 2.63zm11.29-2.75h-.06c-.61 0-1.1.49-1.1 1.1 0 .25.06.43.18.61v.07c-.86 1.46-2.94 1.22-1.9-.74l1.41-2.38.86-1.47c1.29-2.2 3.07-1.35 1.96.55l-1.35 2.26zm11.54 6.85c-.37.67-.98.61-.98.06 0-.49.43-1.04 1.84-1.59l-.86 1.53zm.86-4.1c-.43 0-.61-.3-.18-.97l2.57-4.47c.99-1.71 2.95-1.28 2.03.37l-1.41 2.44c-1.11 1.78-2.27 2.63-3.01 2.63zm18.11-2.75h-.07c-.61 0-1.1.49-1.1 1.1 0 .25.06.43.18.61v.07c-.86 1.46-2.94 1.22-1.9-.74l1.41-2.38.86-1.47c1.29-2.2 3.07-1.35 1.97.55l-1.35 2.26z" fill="#766458"/><path d="M62.1 40.84h17.74v1.22H62.1v-1.22zm139.32 0h17.73v1.22h-17.73v-1.22z" fill="#766458" fill-rule="evenodd"/><path d="M100.03 0h4.73l-.74 27.45h-8.9l-1.23-11.31-1.22 11.31h-8.96L83.03 0h4.66l.37 22.74h.49L91.56 0h4.66l3.01 22.74h.49L100.03 0zm19.52 22.74v4.77h-12.83V0h12.83v4.7h-8.17v6.61h6.51v4.71h-6.51v6.66h8.17v.06zm13.13 0v4.77h-11.23V0h4.66v22.74h6.57zm9.94-5.38l4.73-1.1v8.32c0 1.59-1.35 2.87-2.89 2.87h-7.05c-1.6 0-2.89-1.34-2.89-2.87V2.87c0-1.59 1.29-2.87 2.89-2.87h7.05c1.54 0 2.89 1.28 2.89 2.87v5.56l-4.73 1.1V4.64h-3.37v18.04h3.37v-5.32zM160.11 0c1.54 0 2.89 1.28 2.89 2.87v21.65c0 1.59-1.35 2.87-2.89 2.87h-7.06c-1.59 0-2.88-1.35-2.88-2.87V2.87c0-1.59 1.29-2.87 2.88-2.87h7.06zm-1.84 4.7h-3.37v18.04h3.37V4.7zM178.34 0H183v27.45h-4.66V13.94l-1.9 6.97h-4.61l-1.84-6.97v13.51h-4.66V0h4.66l4.18 13.26L178.34 0zm19.82 22.74v4.77h-12.82V0h12.82v4.7H190v6.61h6.51v4.71H190v6.66h8.16v.06z" fill="#81B3D3"/><path d="M27.18 96.37c-2.21-1.84-4.97-3.06-7.91-3.06-2.21 0-5.1 1.28-5.1 3.85 0 2.69 3.25 3.73 5.28 4.34l3.07.92c6.38 1.9 11.35 5.08 11.35 12.48 0 4.52-1.1 9.23-4.72 12.29-3.62 3.05-8.41 4.28-13.01 4.28-5.77 0-11.48-1.96-16.14-5.2l4.97-9.48c3 2.63 6.5 4.71 10.61 4.71 2.83 0 5.77-1.41 5.77-4.59 0-3.36-4.66-4.46-7.24-5.19-7.49-2.21-12.4-4.1-12.4-12.97 0-9.29 6.63-15.35 15.84-15.35 4.6 0 10.31 1.47 14.36 3.79l-4.73 9.18zm29.03-1.71v7.64h13.44v10.09H56.21v7.89h14.24v10.09H44.3V84.63h26.15v10.09l-14.24-.06zm23.08-10.03h16.93c12.77 0 23.33 10.03 23.33 22.87 0 12.84-10.62 22.87-23.33 22.87H79.29V84.63zm11.96 35.65h2.7c7.12 0 13.2-3.92 13.2-12.78 0-8.2-5.4-12.78-13.07-12.78h-2.83v25.56zm84.7-13.64c0 14.8-10.68 25.25-25.41 25.25s-25.41-10.45-25.41-25.25c0-13.82 12.21-23.54 25.41-23.54 13.19 0 25.41 9.72 25.41 23.54zm-38.42.06c0 7.89 5.83 13.64 12.95 13.64 7.12 0 12.95-5.75 12.95-13.64 0-6.3-5.83-12.11-12.95-12.11-7.06 0-12.95 5.81-12.95 12.11zm44.74-22.07h11.96l21.85 28h.13v-28h11.96v45.74h-11.96l-21.85-28.07h-.13v28.07h-11.96V84.63zm67.57 37.79l-3.19 7.95H234l17.68-45.74h13.01L282 130.37h-12.71l-3.01-7.95h-16.44zm8.34-23.67h-.12l-4.91 14.56h9.94l-4.91-14.56zM66.21 175.92c4.73-1.59 5.04-7.46.43-7.46-1.28 0-2.82.92-3.86 2.69l-6.26 10.83c-.31.48-.55.91-.92 1.34-1.6-2.2-1.17-5.5 1.1-6.97l-.92-1.16c-4.91 3.12-3.44 12.04 4.73 12.04 6.93 0 10.18-8.31 5.7-11.31zm-5.76 9.54c-1.42 0-2.46-.31-3.38-.79.43-.49.8-1.04 1.17-1.66l3.92-6.78.62.06c5.46 1.16 3.31 9.17-2.33 9.17zm2.51-10.58l1.9-3.24c1.72-2.93 3.87-1.22 2.7.98-.92 1.71-2.2 2.2-4.6 2.26z" fill="#FFF"/><path d="M85.91 183.44c-.36 1.35.37 2.51 1.91 2.51.92 0 2.08-.61 3.25-1.53.12.92.86 1.53 2.03 1.53 1.22 0 2.57-.86 3.92-2.08-.24 1.22.31 2.08 1.48 2.08 1.28 0 2.7-1.16 3.8-2.2-.24 1.22.49 2.2 1.97 2.2 1.9 0 4.11-2.08 6.07-4.28 0-.06-.06-.06-.06-.12 1.29-1.47 2.39-3.06 3.25-4.16-.92 2.38-.43 6.73-2.64 6.73-.79 0-1.1-.86-1.1-.86l-1.47.73s.43 1.9 2.57 1.9c.25 0 .43 0 .68-.06h.06c1.72-.25 3.37-1.29 4.85-2.57.06 1.53 1.23 2.63 3.13 2.63 2.64 0 5.28-2.08 7.18-4.28-.19-.31-.55-.67-.86-.8l-.19.19c-1.65 1.95-3.8 3.48-5.46 3.48-1.41 0-2.27-.91-1.22-2.75l.24-.43c1.47.61 4.3.31 6.08-2.69l.3-.55c1.23-2.14.06-3.73-1.84-3.73-1.9 0-3.37.98-4.35 2.69l-2.28 3.86h-.06l-.18.18c-.86.98-1.9 1.89-2.82 2.51.73-2.21.55-5.63 2.02-8.56l-1.72-.92c-.98 1.34-3.07 4.34-5.15 6.79l.06.06-.06.12c-1.66 1.96-3.32 3.48-4.36 3.48-.49 0-.8-.36-.25-1.28l4.98-8.68h-2.34l-4.11 7.21c-1.78 1.59-3.13 2.51-3.56 2.33-.55-.25 0-1.1.31-1.59l4.54-7.89h-2.33L98.5 181c-.07-.06-.13-.06-.19-.12l-.18.18c-1.66 1.96-3.32 3.48-4.36 3.48-.49 0-.8-.36-.25-1.28l3.75-6.54h-1.35c.06-.98-.92-2.33-2.46-2.33-1.22 0-3 .98-3.99 2.69l-2.33 4.04a1.17 1.17 0 00-.37-.24l-.18.18c-1.66 1.96-3.81 3.48-5.46 3.48-1.41 0-2.27-.91-1.23-2.75l2.39-4.16c1.35-2.32 3.75-1.89 2.34.49l-.31.55h1.9l.31-.55c1.23-2.14.06-3.73-1.84-3.73-1.91 0-3.38.98-4.36 2.69L78 181.06c-.06-.06-.13-.06-.19-.12l-.18.18c-1.66 1.96-3.81 3.49-5.46 3.49-1.41 0-2.27-.92-1.23-2.76l.25-.42c1.47.61 4.29.3 6.07-2.69l.31-.56c1.23-2.14.06-3.73-1.84-3.73-1.91 0-3.38.98-4.36 2.7l-2.46 4.15c-1.47 2.45-.18 4.77 2.58 4.77 2.03 0 4.11-1.22 5.77-2.81-.06 1.59 1.17 2.81 3.13 2.81 1.97-.12 3.87-1.22 5.52-2.63zm35.6-5.87c1.35-2.32 3.74-1.89 2.33.49l-.3.55c-1.11 1.9-2.64 1.84-3.5 1.53l1.47-2.57zm-33.26 5.69l3.25-5.63c1.23-2.14 3.74-1.59 2.58.49l-1.84 3.18c-1.42 2.2-2.83 3.24-3.75 3.24-.49-.06-.8-.36-.24-1.28zm-14.86-5.69c1.36-2.32 3.75-1.89 2.34.49l-.31.55c-1.1 1.9-2.64 1.84-3.5 1.53l1.47-2.57zm78.93 8.38c2.64 0 5.28-2.08 7.18-4.28-.19-.31-.55-.67-.86-.8l-.18.19c-1.66 1.95-3.81 3.48-5.47 3.48-1.41 0-2.27-.91-1.22-2.75l.24-.43c1.47.61 4.3.31 6.08-2.69l.3-.55c1.23-2.14.07-3.73-1.84-3.73-1.9 0-3.37.98-4.35 2.69l-2.28 3.86s-.06 0-.06-.07l-.18.19c-1.66 1.95-3.31 3.48-4.36 3.48-.49 0-.8-.36-.24-1.28l3.37-5.87c.98-1.77.06-3.06-1.23-3.06-.98 0-2.08.55-3.25 1.77l3.75-6.42h-2.4L138.75 181c-.06-.06-.18-.13-.24-.19l-.18.19c-1.66 1.95-3.32 3.48-4.36 3.48-.49 0-.8-.36-.25-1.28l4.97-8.69h1.91l.67-1.1h-1.9l2.21-3.79h-2.33l-2.21 3.79h-2.09l-.67 1.1h2.14l-4.66 8.08c-.98 1.71-.31 3.3 1.59 3.3 1.17 0 2.4-.74 3.69-1.84l-.92 1.59h2.33l3.56-6.11c3.56-4.47 5.15-3.91 4.17-2.2l-3.01 5.26c-.98 1.71-.3 3.3 1.6 3.3 1.41 0 3.01-1.1 4.48-2.57 0 1.53 1.17 2.63 3.07 2.63zm1.9-8.38c1.35-2.32 3.74-1.89 2.33.49l-.3.55c-1.11 1.9-2.64 1.84-3.5 1.53l1.47-2.57zm68.68 3.3l-.19.19c-1.66 1.95-3.31 3.48-4.36 3.48-.49 0-.79-.36-.24-1.28l7.85-13.58h-2.33l-3.44 5.87c-.42-.67-1.16-1.22-2.14-1.22-1.23 0-3.01.98-3.99 2.69l-2.27 3.92c-.06 0-.13-.07-.13-.07l-.18.19c-1.66 1.95-3.31 3.48-4.36 3.48-.49 0-.79-.36-.24-1.28l3.37-5.87c.98-1.77.06-3.06-1.22-3.06-.99 0-2.09.55-3.26 1.71l.86-1.52h-2.33l-3.74 6.42c-.07-.07-.13-.13-.25-.13l-.18.19c-1.66 1.95-3.32 3.48-4.36 3.48-.49 0-.8-.36-.25-1.28l3.75-6.54h-1.17c.06-.98-.92-2.33-2.45-2.33-1.23 0-3.01.98-3.99 2.69l-2.27 3.85-.13.13c-1.65 1.95-3.31 3.48-4.35 3.48-.49 0-.8-.36-.25-1.28l2.33-4.04c.8-1.4.43-2.2-.3-3.12l-1.29-1.59c-.31-.42-.31-.91.12-1.34l-1.23-1.35c-1.35 1.17-1.41 2.51-.61 3.55l.18.24c-1.04 1.47-2.39 3.43-3.92 5.2.06.06.12.12.18.19-1.9 2.2-3.56 3.6-5.4 4.4l2.94-5.02h-2.27l-.24.43c-1.23 2.14-2.64 3.73-4.48 3.73-1.6 0-1.9-1.59-.49-3.97l.67-1.16c.43.06.86.12 1.35.12 8.29 0 12.28-11.07 4.97-11.07-1.28 0-2.82.92-3.86 2.69l-3.62 6.24c-1.35-.74-2.09-2.02-2.09-3.3 0-1.1.49-2.14 1.47-2.94l-.73-1.34c-1.66 1.16-2.4 2.75-2.4 4.34 0 1.83 1.05 3.6 2.95 4.58l-.68 1.23c-1.65 2.81-1.35 5.93 1.97 5.93.98 0 1.84-.31 2.51-.74l-.61 1.04c-3.13.98-5.09 2.2-5.09 3.98 0 2.2 3.43 2.69 5.09-.19l1.78-3.05c2.39-.74 4.79-2.39 7.36-5.38-.06-.07-.06-.13-.12-.25 1.04-1.22 1.9-2.38 3.68-4.77l.31.37c.31.37.43.85.12 1.34l-2.45 4.28c-.98 1.72-.31 3.31 1.59 3.31 1.17 0 2.46-.74 3.69-1.84 0 1.04.67 1.84 2.02 1.84.92 0 2.09-.61 3.25-1.53.13.92.86 1.53 2.03 1.53 1.1 0 2.33-.68 3.5-1.72l-.86 1.47h2.33l3.56-6.17c3.56-4.47 5.16-3.86 4.11-2.14l-3.01 5.25c-.98 1.72-.3 3.31 1.6 3.31 1.23 0 2.58-.86 3.93-2.02-.12 1.16.61 2.02 2.02 2.02.92 0 2.09-.61 3.26-1.53.12.92.86 1.53 2.02 1.53 1.9 0 4.11-2.08 6.08-4.28-.25-.13-.68-.49-.98-.62zm-47.81-8.68c.67-1.16 1.47-1.71 2.08-1.71 3.69 0 1.11 7.52-4.97 7.52h-.49l3.38-5.81zm-4.97 17.49c-.49.86-1.29.73-1.29.12s.55-1.28 2.33-1.95l-1.04 1.83zm24.36-8.44c-1.41 2.2-2.82 3.24-3.74 3.24-.49 0-.8-.36-.25-1.28l3.25-5.63c1.23-2.14 3.75-1.59 2.58.49l-1.84 3.18zm22.52-.12c-1.41 2.32-2.82 3.36-3.8 3.36-.49 0-.8-.36-.25-1.28l3.26-5.63c1.22-2.14 3.74-1.59 2.57.49l-1.78 3.06zm-71.86 21.77l-.19.18c-1.65 1.96-3.31 3.49-4.35 3.49-.49 0-.8-.37-.25-1.29l3.38-5.87c.98-1.77.06-3.05-1.23-3.05-.98 0-2.09.55-3.25 1.71l.86-1.53h-2.34l-3.74 6.48c-.12-.06-.18-.12-.31-.18l-.18.18c-1.04 1.16-2.33 1.71-3.5 1.71l2.21-3.79c1.41-2.44.12-4.71-2.09-4.71-1.78 0-3.19.74-4.54 3.06l-1.16 1.96-.99 1.71c-.06-.06-.12-.06-.18-.12l-.18.18c-1.91 2.2-3.56 3.61-5.4 4.4l6.38-10.88h-2.33l-4.12 7.15c-1.78 1.65-3.19 2.57-3.62 2.39-.55-.25 0-1.1.31-1.59l4.54-7.89h-2.33l-3.74 6.42c-.07-.06-.13-.06-.19-.12l-.18.18c-1.66 1.96-3.32 3.49-4.36 3.49-.49 0-.8-.37-.25-1.29l3.38-5.87c.98-1.77.06-3.05-1.23-3.05-.98 0-2.08.55-3.25 1.71l.86-1.53h-2.33l-3.75 6.42c-.06-.06-.12-.12-.24-.12l-.19.18c-1.65 1.96-3.31 3.49-4.35 3.49-.49 0-.8-.37-.25-1.29l3.74-6.54h-1.35c.07-.98-.92-2.32-2.45-2.32-1.23 0-3.01.97-3.99 2.69l-2.39 4.15c-.19-.12-.37-.24-.49-.3l-.19.18c-1.66 1.96-3.74 3.49-6.01 3.49-1.6 0-2.58-1.59-1.17-3.98l.68-1.16c.43.06.86.12 1.35.12 2.45 0 5.27-1.28 7.12-4.46.67-1.16.92-2.2.92-3.12 0-2.08-1.35-3.49-3.07-3.49-1.29 0-2.83.92-3.87 2.7l-3.62 6.23c-1.35-.73-2.09-2.02-2.09-3.3 0-1.1.49-2.14 1.48-2.93l-.74-1.35c-1.66 1.16-2.39 2.75-2.39 4.34 0 1.84 1.04 3.61 2.94 4.59l-.67 1.22c-1.66 2.81-.68 5.93 2.64 5.93 2.57 0 4.54-1.16 6.13-2.69-.49 1.47.25 2.69 1.91 2.69.92 0 2.08-.61 3.25-1.53.12.92.86 1.53 2.02 1.53 1.11 0 2.34-.67 3.5-1.71l-.86 1.47h2.34l3.55-6.18c3.56-4.46 5.16-3.85 4.12-2.14l-3.01 5.26c-.98 1.71-.31 3.3 1.6 3.3 1.22 0 2.63-.85 3.98-2.08-.3 1.29.31 2.08 1.48 2.08 1.1 0 2.39-.91 3.43-1.89l-1.28 2.2c-3.13.92-5.16 2.2-5.16 3.97 0 2.2 3.44 2.69 5.09-.18l1.78-3.06c1.97-.61 3.87-1.83 5.9-3.79-.31 3.24 3.98 3.98 6.62.67h.49c.86 0 2.03-.3 3.07-.91l-1.53 2.69h2.33l3.56-6.18c3.56-4.46 5.16-3.85 4.11-2.14l-3.01 5.26c-.98 1.71-.3 3.3 1.6 3.3 1.9 0 4.11-2.08 6.08-4.28-.07-.18-.49-.55-.8-.67zM87.2 194.2c.68-1.16 1.48-1.71 2.09-1.71.86 0 1.29.55 1.29 1.41 0 2.14-2.64 6.05-6.26 6.05h-.49l3.37-5.75zm8.23 9.05c-1.41 2.21-2.83 3.25-3.75 3.25-.49 0-.79-.37-.24-1.29l3.25-5.62c1.23-2.14 3.74-1.59 2.58.49l-1.84 3.17zm17.67 8.44c-.49.86-1.29.74-1.29.13 0-.62.56-1.29 2.34-1.96l-1.05 1.83zm15.71-8.68h-.12c-.74 0-1.35.61-1.35 1.41 0 .3.06.55.25.79v.06c-1.11 1.9-3.75 1.53-2.4-.91l1.78-3.06 1.11-1.9c1.65-2.75 3.86-1.65 2.45.74l-1.72 2.87zm70.27.67c-.12-.36-.55-.73-.86-.79l-.18.18c-.86.98-1.9 1.9-2.82 2.51.73-2.2.55-5.63 2.02-8.56l-1.72-.92c-.98 1.35-3.06 4.34-5.15 6.79l-.19.18c-1.65 1.96-3.31 3.49-4.35 3.49-.49 0-.98-.49-.98-1.59v-.98c1.65.18 3.37-.86 4.48-2.75l.61-1.1c2.15-3.73-1.35-4.96-3.74-2.75l3.31-5.75h-2.33l-6.63 11.49c-.12-.12-.31-.24-.43-.3l-.18.18c-1.66 1.96-3.81 3.49-5.47 3.49-1.41 0-2.27-.92-1.22-2.75l2.39-4.16c1.35-2.33 3.74-1.9 2.33.49l-.31.55h1.91l.3-.55c1.23-2.14.07-3.73-1.84-3.73-1.9 0-3.37.97-4.35 2.69l-2.27 3.91c-.07 0-.13-.06-.13-.06l-.18.18c-1.66 1.96-3.32 3.49-4.36 3.49-.49 0-.8-.37-.24-1.29l4.97-8.68h-2.34l-4.11 7.22c-1.78 1.59-3.13 2.5-3.56 2.32-.55-.24 0-1.1.31-1.59l4.54-7.89h-2.33l-4.54 7.77c-.49.43-1.05.85-1.48 1.22.74-2.2.56-5.63 2.03-8.56l-1.72-.92c-.98 1.35-6.32 8.44-8.47 10.89.19.3.55.55.86.79 1.35-1.53 5.77-7.21 6.57-8.31-.92 2.38-.43 6.72-2.64 6.72-.8 0-1.11-.85-1.11-.85l-1.47.73s.43 1.9 2.58 1.9c.24 0 .43 0 .67-.07h.07c1.16-.18 2.33-.67 3.43-1.46 0 .91.55 1.53 1.54 1.53 1.29 0 2.7-1.17 3.8-2.21-.24 1.23.49 2.21 1.97 2.21 1.47 0 3.06-1.17 4.6-2.7 0 1.53 1.23 2.7 3.13 2.7s3.74-1.04 5.4-2.45l-1.29 2.26h2.33l2.64-4.58v1.83c0 1.96.37 3 2.27 3s4.11-2.08 6.08-4.28c1.35-1.53 2.45-3.12 3.31-4.22-.92 2.38-.43 6.72-2.64 6.72-.79 0-1.1-.85-1.1-.85l-1.47.73s.42 1.9 2.57 1.9c.25 0 .43 0 .68-.06h.06c2.33-.43 4.72-2.33 6.44-4.35zm-15.46-1.83l.67-1.16c2.7-3.73 4.54-2.69 3.69-1.29l-1.11 1.9c-.67 1.22-2.7 2.08-3.25.55zm15.4 3.42c-.73 0-1.35.62-1.35 1.35 0 .73.55 1.34 1.35 1.34.74 0 1.35-.55 1.35-1.34 0-.73-.61-1.35-1.35-1.35zm.12-.91h2.34l7.3-12.66h-2.33l-7.31 12.66zM49.21 169.75c0 .18-.06.36-.12.55-.06.18-.18.36-.3.49-.13.12-.31.24-.5.36-.18.06-.43.12-.67.12-.31 0-.55-.06-.8-.18-.24-.12-.49-.24-.67-.43-.19-.18-.25-.36-.37-.61a3.12 3.12 0 01-.12-.79c0-.55.12-.98.3-1.47.19-.43.43-.86.8-1.16.12-.12.31-.31.49-.43s.37-.25.55-.31c.19-.06.31-.18.43-.24.13-.06.19-.06.25-.12l.86 1.22c-.13.06-.31.12-.49.24-.19.07-.37.19-.56.31-.18.12-.3.31-.43.49-.12.18-.18.37-.18.61.43 0 .74.12 1.04.37.37.18.49.55.49.98zm4.85 0c0 .18-.06.36-.12.55-.06.18-.18.36-.31.49-.12.12-.3.24-.49.36-.18.06-.43.12-.67.12-.31 0-.56-.06-.8-.18-.25-.12-.49-.24-.68-.43-.12-.18-.24-.36-.36-.61a2.72 2.72 0 01-.13-.79c0-.55.13-.98.31-1.47.18-.43.43-.86.8-1.16.12-.12.3-.31.49-.43.18-.12.37-.25.55-.31.19-.06.31-.18.43-.24s.19-.06.25-.12l.86 1.22c-.13.06-.31.12-.5.24-.18.07-.36.19-.55.31-.18.12-.3.31-.43.49-.12.18-.18.37-.18.61.43 0 .74.12 1.04.37.31.18.49.55.49.98zm162.7 36.01c0-.18.06-.36.12-.55.06-.18.18-.36.31-.49.12-.12.3-.24.49-.36.18-.06.43-.13.67-.13.31 0 .56.07.8.19.25.12.49.24.68.43.18.18.24.36.36.61.07.24.13.49.13.79 0 .55-.13.98-.31 1.47-.18.43-.43.86-.8 1.16-.12.12-.3.31-.49.43-.18.12-.37.24-.55.31-.18.06-.31.18-.43.24s-.18.06-.25.12l-.85-1.22c.12-.06.3-.12.49-.25.18-.06.36-.18.55-.3.18-.12.31-.31.43-.49s.18-.37.18-.61c-.43 0-.73-.12-1.04-.37-.31-.18-.49-.55-.49-.98zm-4.79 0c0-.18.06-.36.12-.55.07-.18.19-.36.31-.49.12-.12.31-.24.49-.36.19-.06.43-.13.68-.13.3 0 .55.07.79.19.25.12.5.24.68.43.12.18.25.36.37.61.06.24.12.49.12.79 0 .55-.12.98-.31 1.47-.18.43-.43.86-.79 1.16-.13.12-.31.31-.49.43-.19.12-.37.24-.56.31-.18.06-.3.18-.43.24-.12.06-.18.06-.24.12l-.86-1.22c.18-.06.31-.12.49-.25.18-.06.37-.18.55-.3.19-.12.31-.31.43-.49s.19-.37.19-.61c-.43 0-.74-.12-1.05-.37-.37-.18-.49-.55-.49-.98z" fill="#FFF"/></g></svg>