<svg width="282.000000" height="214.000488" viewBox="0 0 282 214" fill="none" xmlns="http://www.w3.org/2000/svg" xmlns:xlink="http://www.w3.org/1999/xlink">
	<desc>
			Created with Pixso.
	</desc>
	<defs/>
	<g style="mix-blend-mode:normal">
		<path id="Vector" d="M101.38 42.8L101.26 42.92C100.4 43.84 99.42 44.27 98.5 44.27L100.21 41.27C101.32 39.38 100.28 37.54 98.56 37.54C97.15 37.54 96.04 38.09 95 39.93L94.08 41.52L93.34 42.8L93.22 42.92C91.87 44.45 90.58 45.67 89.78 45.67C89.35 45.67 89.17 45.37 89.6 44.7L93.52 37.85L95 37.85L95.55 36.99L94.02 36.99L95.73 33.99L93.89 33.99L92.17 36.99L90.52 36.99L89.97 37.85L91.62 37.85L87.94 44.21C87.14 45.55 87.69 46.84 89.17 46.84C90.21 46.84 91.44 46.04 92.54 44.94C92.54 47.26 95.8 47.75 97.76 45.25L98.19 45.25C99.29 45.25 101.01 44.57 101.93 43.47C101.93 43.17 101.63 42.92 101.38 42.8ZM97.45 42.92L97.39 42.92C96.78 42.92 96.29 43.41 96.29 44.02C96.29 44.27 96.35 44.45 96.47 44.63L96.47 44.7C95.61 46.16 93.52 45.92 94.57 43.96L95.98 41.58L96.84 40.11C98.13 37.91 99.91 38.76 98.8 40.66L97.45 42.92Z" fill="#766458" fill-opacity="1.000000" fill-rule="nonzero"/>
		<path id="Vector" d="M126.85 42.8L126.73 42.92C125.38 44.45 123.72 45.67 122.43 45.67C121.33 45.67 120.65 44.94 121.45 43.47L121.63 43.17C122.8 43.66 125.07 43.41 126.42 41.03L126.67 40.6C127.65 38.89 126.73 37.66 125.19 37.66C123.72 37.66 122.55 38.46 121.76 39.8L119.98 42.86L119.85 42.98C118.5 44.51 117.21 45.73 116.42 45.73C115.99 45.73 115.8 45.43 116.23 44.76L118.87 40.11C119.67 38.7 118.93 37.72 117.89 37.72C117.09 37.72 116.23 38.15 115.31 39.13L118.26 34.05L116.42 34.05L111.32 42.8L111.2 42.92C109.85 44.45 108.56 45.67 107.76 45.67C107.33 45.67 107.15 45.37 107.58 44.69L111.51 37.85L112.98 37.85L113.53 36.99L112 36.99L113.72 33.99L111.87 33.99L110.16 36.99L108.5 36.99L107.95 37.85L109.6 37.85L105.92 44.21C105.12 45.55 105.68 46.84 107.15 46.84C107.89 46.84 108.68 46.47 109.48 45.86L108.99 46.65L110.83 46.65L113.59 41.82C116.42 38.27 117.64 38.76 116.91 40.11L114.51 44.27C113.72 45.61 114.27 46.9 115.74 46.9C116.85 46.9 118.07 46.04 119.18 44.94C119.24 46.1 120.22 46.9 121.69 46.9C123.78 46.9 125.87 45.31 127.34 43.53C127.4 43.17 127.09 42.92 126.85 42.8ZM123.35 40.23C124.39 38.4 126.3 38.7 125.19 40.6L124.95 41.03C124.09 42.49 122.86 42.49 122.19 42.25L123.35 40.23Z" fill="#766458" fill-opacity="1.000000" fill-rule="nonzero"/>
		<path id="Vector" d="M193.81 42.8L193.68 42.92C193.01 43.72 192.21 44.39 191.47 44.94C192.09 43.17 191.9 40.54 193.07 38.15L191.72 37.42C190.98 38.46 189.33 40.84 187.61 42.8L187.48 42.92C186.13 44.45 184.84 45.67 184.05 45.67C183.62 45.67 183.43 45.37 183.86 44.7L187.79 37.85L185.95 37.85L182.7 43.53C181.29 44.82 180.24 45.49 179.87 45.37C179.44 45.18 179.87 44.51 180.12 44.08L183.68 37.85L181.84 37.85L178.95 42.8L178.83 42.92C177.97 43.84 176.99 44.27 176.07 44.27L177.79 41.27C178.89 39.38 177.85 37.54 176.13 37.54C174.72 37.54 173.61 38.09 172.57 39.93L171.65 41.52L170.91 42.8L170.79 42.92C169.44 44.45 167.78 45.67 166.5 45.67C165.39 45.67 164.72 44.94 165.51 43.47L165.7 43.17C166.86 43.66 169.13 43.41 170.48 41.03L170.73 40.6C171.71 38.89 170.79 37.66 169.26 37.66C167.78 37.66 166.62 38.46 165.82 39.8L164.04 42.86L163.92 42.98C162.38 44.76 161.09 45.86 159.62 46.47L163.73 39.44L162.63 39.44C162.63 38.7 161.83 37.66 160.73 37.66C159.74 37.66 158.33 38.46 157.6 39.8L155.82 42.86L155.69 42.98C154.34 44.51 153.05 45.73 152.26 45.73C151.83 45.73 151.64 45.43 152.07 44.76L153.91 41.58C154.53 40.48 154.22 39.8 153.67 39.07L152.63 37.85C152.38 37.54 152.38 37.11 152.75 36.81L151.77 35.77C150.72 36.68 150.66 37.72 151.28 38.58L151.46 38.76C150.66 39.93 149.56 41.45 148.33 42.86L148.21 42.98C147.35 43.9 146.37 44.33 145.44 44.33L147.16 41.33C148.27 39.44 147.22 37.6 145.51 37.6C144.09 37.6 142.99 38.15 141.95 39.99L141.03 41.58L140.29 42.86L140.17 42.98C138.63 44.76 137.34 45.86 135.87 46.47L139.98 39.44L138.88 39.44C138.88 38.7 138.08 37.66 136.98 37.66C135.99 37.66 134.58 38.46 133.85 39.8L131.27 44.27C130.47 45.61 131.02 46.9 132.5 46.9C132.99 46.9 133.6 46.65 134.28 46.28L133.78 47.14C131.33 47.87 129.73 48.91 129.73 50.26C129.73 52.03 132.43 52.4 133.78 50.14L135.2 47.75C136.67 47.32 138.08 46.41 139.61 45C139.61 47.32 142.87 47.81 144.83 45.31L145.26 45.31C146.37 45.31 148.08 44.63 149 43.53C149.86 42.49 150.6 41.58 152.07 39.62L152.32 39.93C152.56 40.23 152.63 40.6 152.44 40.96L150.48 44.33C149.68 45.67 150.23 46.96 151.7 46.96C152.63 46.96 153.67 46.35 154.65 45.49C154.65 46.35 155.2 46.96 156.25 46.96C156.74 46.96 157.35 46.71 158.03 46.35L157.6 47.08C155.14 47.81 153.55 48.85 153.55 50.2C153.55 51.97 156.25 52.34 157.6 50.08L159.01 47.69C160.48 47.2 161.95 46.35 163.49 44.88C163.55 46.04 164.47 46.84 166 46.84C167.48 46.84 169.01 45.98 170.24 44.88C170.18 47.26 173.49 47.75 175.46 45.25L175.88 45.25C176.44 45.25 177.23 45.06 177.91 44.7C177.42 45.98 177.85 46.84 178.89 46.84C179.87 46.84 181.04 45.92 181.9 45.06C181.72 46.04 182.33 46.84 183.49 46.84C185.03 46.84 186.75 45.25 188.28 43.47C189.33 42.25 190.25 40.96 190.92 40.11C190.18 42 190.61 45.43 188.83 45.43C188.22 45.43 187.97 44.76 187.97 44.76L186.81 45.37C186.81 45.37 187.12 46.84 188.83 46.84C189.02 46.84 189.14 46.84 189.33 46.77L189.39 46.77C191.29 46.53 193.13 45.06 194.48 43.47C194.42 43.17 194.11 42.86 193.81 42.8ZM167.48 40.23C168.52 38.4 170.42 38.7 169.32 40.6L169.07 41.03C168.21 42.49 166.99 42.49 166.31 42.25L167.48 40.23ZM132.37 49.77C132 50.44 131.39 50.38 131.39 49.83C131.39 49.34 131.82 48.79 133.23 48.24L132.37 49.77ZM133.23 45.67C132.8 45.67 132.62 45.37 133.05 44.7L135.63 40.23C136.61 38.52 138.57 38.95 137.65 40.6L136.24 43.04C135.13 44.82 133.97 45.67 133.23 45.67ZM144.52 42.92L144.46 42.92C143.85 42.92 143.36 43.41 143.36 44.02C143.36 44.27 143.42 44.45 143.54 44.63L143.54 44.7C142.68 46.16 140.6 45.92 141.64 43.96L143.05 41.58L143.91 40.11C145.2 37.91 146.98 38.76 145.87 40.66L144.52 42.92ZM156.06 49.77C155.69 50.44 155.08 50.38 155.08 49.83C155.08 49.34 155.51 48.79 156.92 48.24L156.06 49.77ZM156.92 45.67C156.49 45.67 156.31 45.37 156.74 44.7L159.31 40.23C160.3 38.52 162.26 38.95 161.34 40.6L159.93 43.04C158.82 44.82 157.66 45.67 156.92 45.67ZM175.03 42.92L174.96 42.92C174.35 42.92 173.86 43.41 173.86 44.02C173.86 44.27 173.92 44.45 174.04 44.63L174.04 44.7C173.18 46.16 171.1 45.92 172.14 43.96L173.55 41.58L174.41 40.11C175.7 37.91 177.48 38.76 176.38 40.66L175.03 42.92Z" fill="#766458" fill-opacity="1.000000" fill-rule="nonzero"/>
		<path id="Vector" d="M62.1 40.84L79.84 40.84L79.84 42.06L62.1 42.06L62.1 40.84Z" fill="#766458" fill-opacity="1.000000" fill-rule="evenodd"/>
		<path id="Vector" d="M201.42 40.84L219.15 40.84L219.15 42.06L201.42 42.06L201.42 40.84Z" fill="#766458" fill-opacity="1.000000" fill-rule="evenodd"/>
		<path id="Vector" d="M100.03 0L104.76 0L104.02 27.45L95.12 27.45L93.89 16.14L92.67 27.45L83.71 27.45L83.03 0L87.69 0L88.06 22.74L88.55 22.74L91.56 0L96.22 0L99.23 22.74L99.72 22.74L100.03 0Z" fill="#81B3D3" fill-opacity="1.000000" fill-rule="nonzero"/>
		<path id="Vector" d="M119.55 22.74L119.55 27.51L106.72 27.51L106.72 0L119.55 0L119.55 4.7L111.38 4.7L111.38 11.31L117.89 11.31L117.89 16.02L111.38 16.02L111.38 22.68L119.55 22.68L119.55 22.74Z" fill="#81B3D3" fill-opacity="1.000000" fill-rule="nonzero"/>
		<path id="Vector" d="M132.68 22.74L132.68 27.51L121.45 27.51L121.45 0L126.11 0L126.11 22.74L132.68 22.74Z" fill="#81B3D3" fill-opacity="1.000000" fill-rule="nonzero"/>
		<path id="Vector" d="M142.62 17.36L147.35 16.26L147.35 24.58C147.35 26.17 146 27.45 144.46 27.45L137.41 27.45C135.81 27.45 134.52 26.11 134.52 24.58L134.52 2.87C134.52 1.28 135.81 0 137.41 0L144.46 0C146 0 147.35 1.28 147.35 2.87L147.35 8.43L142.62 9.53L142.62 4.64L139.25 4.64L139.25 22.68L142.62 22.68L142.62 17.36Z" fill="#81B3D3" fill-opacity="1.000000" fill-rule="nonzero"/>
		<path id="Vector" d="M160.11 0C161.65 0 163 1.28 163 2.87L163 24.52C163 26.11 161.65 27.39 160.11 27.39L153.05 27.39C151.46 27.39 150.17 26.04 150.17 24.52L150.17 2.87C150.17 1.28 151.46 0 153.05 0L160.11 0ZM158.27 4.7L154.9 4.7L154.9 22.74L158.27 22.74L158.27 4.7Z" fill="#81B3D3" fill-opacity="1.000000" fill-rule="nonzero"/>
		<path id="Vector" d="M178.34 0L183 0L183 27.45L178.34 27.45L178.34 13.94L176.44 20.91L171.83 20.91L169.99 13.94L169.99 27.45L165.33 27.45L165.33 0L169.99 0L174.17 13.26L178.34 0Z" fill="#81B3D3" fill-opacity="1.000000" fill-rule="nonzero"/>
		<path id="Vector" d="M198.16 22.74L198.16 27.51L185.34 27.51L185.34 0L198.16 0L198.16 4.7L190 4.7L190 11.31L196.51 11.31L196.51 16.02L190 16.02L190 22.68L198.16 22.68L198.16 22.74Z" fill="#81B3D3" fill-opacity="1.000000" fill-rule="nonzero"/>
		<path id="Vector" d="M27.18 96.37C24.97 94.53 22.21 93.31 19.27 93.31C17.06 93.31 14.17 94.59 14.17 97.16C14.17 99.85 17.42 100.89 19.45 101.5L22.52 102.42C28.9 104.32 33.87 107.5 33.87 114.9C33.87 119.42 32.77 124.13 29.15 127.19C25.53 130.24 20.74 131.47 16.14 131.47C10.37 131.47 4.66 129.51 0 126.27L4.97 116.79C7.97 119.42 11.47 121.5 15.58 121.5C18.41 121.5 21.35 120.09 21.35 116.91C21.35 113.55 16.69 112.45 14.11 111.72C6.62 109.51 1.71 107.62 1.71 98.75C1.71 89.46 8.34 83.4 17.55 83.4C22.15 83.4 27.86 84.87 31.91 87.19L27.18 96.37Z" fill="#FFFFFF" fill-opacity="1.000000" fill-rule="nonzero"/>
		<path id="Vector" d="M56.21 94.66L56.21 102.3L69.65 102.3L69.65 112.39L56.21 112.39L56.21 120.28L70.45 120.28L70.45 130.37L44.3 130.37L44.3 84.63L70.45 84.63L70.45 94.72L56.21 94.66Z" fill="#FFFFFF" fill-opacity="1.000000" fill-rule="nonzero"/>
		<path id="Vector" d="M79.29 84.63L96.22 84.63C108.99 84.63 119.55 94.66 119.55 107.5C119.55 120.34 108.93 130.37 96.22 130.37L79.29 130.37L79.29 84.63ZM91.25 120.28L93.95 120.28C101.07 120.28 107.15 116.36 107.15 107.5C107.15 99.3 101.75 94.72 94.08 94.72L91.25 94.72L91.25 120.28Z" fill="#FFFFFF" fill-opacity="1.000000" fill-rule="nonzero"/>
		<path id="Vector" d="M175.95 106.64C175.95 121.44 165.27 131.89 150.54 131.89C135.81 131.89 125.13 121.44 125.13 106.64C125.13 92.82 137.34 83.1 150.54 83.1C163.73 83.1 175.95 92.82 175.95 106.64ZM137.53 106.7C137.53 114.59 143.36 120.34 150.48 120.34C157.6 120.34 163.43 114.59 163.43 106.7C163.43 100.4 157.6 94.59 150.48 94.59C143.42 94.59 137.53 100.4 137.53 106.7Z" fill="#FFFFFF" fill-opacity="1.000000" fill-rule="nonzero"/>
		<path id="Vector" d="M182.27 84.63L194.23 84.63L216.08 112.63L216.21 112.63L216.21 84.63L228.17 84.63L228.17 130.37L216.21 130.37L194.36 102.3L194.23 102.3L194.23 130.37L182.27 130.37L182.27 84.63Z" fill="#FFFFFF" fill-opacity="1.000000" fill-rule="nonzero"/>
		<path id="Vector" d="M249.84 122.42L246.65 130.37L234 130.37L251.68 84.63L264.69 84.63L282 130.37L269.29 130.37L266.28 122.42L249.84 122.42ZM258.18 98.75L258.06 98.75L253.15 113.31L263.09 113.31L258.18 98.75Z" fill="#FFFFFF" fill-opacity="1.000000" fill-rule="nonzero"/>
		<path id="Vector" d="M66.21 175.92C70.94 174.33 71.25 168.46 66.64 168.46C65.36 168.46 63.82 169.38 62.78 171.15L56.52 181.98C56.21 182.46 55.97 182.89 55.6 183.32C54 181.12 54.43 177.82 56.7 176.35L55.78 175.19C50.87 178.31 52.34 187.23 60.51 187.23C67.44 187.23 70.69 178.92 66.21 175.92ZM60.45 185.46C59.03 185.46 57.99 185.15 57.07 184.67C57.5 184.18 57.87 183.63 58.24 183.01L62.16 176.23L62.78 176.29C68.24 177.45 66.09 185.46 60.45 185.46ZM62.96 174.88L64.86 171.64C66.58 168.71 68.73 170.42 67.56 172.62C66.64 174.33 65.36 174.82 62.96 174.88Z" fill="#FFFFFF" fill-opacity="1.000000" fill-rule="nonzero"/>
		<path id="Vector" d="M85.91 183.44C85.55 184.79 86.28 185.95 87.82 185.95C88.74 185.95 89.9 185.34 91.07 184.42C91.19 185.34 91.93 185.95 93.1 185.95C94.32 185.95 95.67 185.09 97.02 183.87C96.78 185.09 97.33 185.95 98.5 185.95C99.78 185.95 101.2 184.79 102.3 183.75C102.06 184.97 102.79 185.95 104.27 185.95C106.17 185.95 108.38 183.87 110.34 181.67C110.34 181.61 110.28 181.61 110.28 181.55C111.57 180.08 112.67 178.49 113.53 177.39C112.61 179.77 113.1 184.12 110.89 184.12C110.1 184.12 109.79 183.26 109.79 183.26L108.32 183.99C108.32 183.99 108.75 185.89 110.89 185.89C111.14 185.89 111.32 185.89 111.57 185.83L111.63 185.83C113.35 185.58 115 184.54 116.48 183.26C116.54 184.79 117.71 185.89 119.61 185.89C122.25 185.89 124.89 183.81 126.79 181.61C126.6 181.3 126.24 180.94 125.93 180.81L125.74 181C124.09 182.95 121.94 184.48 120.28 184.48C118.87 184.48 118.01 183.57 119.06 181.73L119.3 181.3C120.77 181.91 123.6 181.61 125.38 178.61L125.68 178.06C126.91 175.92 125.74 174.33 123.84 174.33C121.94 174.33 120.47 175.31 119.49 177.02L117.21 180.88L117.15 180.88L116.97 181.06C116.11 182.04 115.07 182.95 114.15 183.57C114.88 181.36 114.7 177.94 116.17 175.01L114.45 174.09C113.47 175.43 111.38 178.43 109.3 180.88L109.36 180.94L109.3 181.06C107.64 183.02 105.98 184.54 104.94 184.54C104.45 184.54 104.14 184.18 104.69 183.26L109.67 174.58L107.33 174.58L103.22 181.79C101.44 183.38 100.09 184.3 99.66 184.12C99.11 183.87 99.66 183.02 99.97 182.53L104.51 174.64L102.18 174.64L98.5 181C98.43 180.94 98.37 180.94 98.31 180.88L98.13 181.06C96.47 183.02 94.81 184.54 93.77 184.54C93.28 184.54 92.97 184.18 93.52 183.26L97.27 176.72L95.92 176.72C95.98 175.74 95 174.39 93.46 174.39C92.24 174.39 90.46 175.37 89.47 177.08L87.14 181.12C87.02 181 86.9 180.94 86.77 180.88L86.59 181.06C84.93 183.02 82.78 184.54 81.13 184.54C79.72 184.54 78.86 183.63 79.9 181.79L82.29 177.63C83.64 175.31 86.04 175.74 84.63 178.12L84.32 178.67L86.22 178.67L86.53 178.12C87.76 175.98 86.59 174.39 84.69 174.39C82.78 174.39 81.31 175.37 80.33 177.08L78 181.06C77.94 181 77.87 181 77.81 180.94L77.63 181.12C75.97 183.08 73.82 184.61 72.17 184.61C70.76 184.61 69.9 183.69 70.94 181.85L71.19 181.43C72.66 182.04 75.48 181.73 77.26 178.74L77.57 178.18C78.8 176.04 77.63 174.45 75.73 174.45C73.82 174.45 72.35 175.43 71.37 177.15L68.91 181.3C67.44 183.75 68.73 186.07 71.49 186.07C73.52 186.07 75.6 184.85 77.26 183.26C77.2 184.85 78.43 186.07 80.39 186.07C82.36 185.95 84.26 184.85 85.91 183.44ZM121.51 177.57C122.86 175.25 125.25 175.68 123.84 178.06L123.54 178.61C122.43 180.51 120.9 180.45 120.04 180.14L121.51 177.57ZM88.25 183.26L91.5 177.63C92.73 175.49 95.24 176.04 94.08 178.12L92.24 181.3C90.82 183.5 89.41 184.54 88.49 184.54C88 184.48 87.69 184.18 88.25 183.26ZM73.39 177.57C74.75 175.25 77.14 175.68 75.73 178.06L75.42 178.61C74.32 180.51 72.78 180.45 71.92 180.14L73.39 177.57Z" fill="#FFFFFF" fill-opacity="1.000000" fill-rule="nonzero"/>
		<path id="Vector" d="M152.32 185.95C154.96 185.95 157.6 183.87 159.5 181.67C159.31 181.36 158.95 181 158.64 180.87L158.46 181.06C156.8 183.01 154.65 184.54 152.99 184.54C151.58 184.54 150.72 183.63 151.77 181.79L152.01 181.36C153.48 181.97 156.31 181.67 158.09 178.67L158.39 178.12C159.62 175.98 158.46 174.39 156.55 174.39C154.65 174.39 153.18 175.37 152.2 177.08L149.92 180.94C149.92 180.94 149.86 180.94 149.86 180.87L149.68 181.06C148.02 183.01 146.37 184.54 145.32 184.54C144.83 184.54 144.52 184.18 145.08 183.26L148.45 177.39C149.43 175.62 148.51 174.33 147.22 174.33C146.24 174.33 145.14 174.88 143.97 176.1L147.72 169.68L145.32 169.68L138.75 181C138.69 180.94 138.57 180.87 138.51 180.81L138.33 181C136.67 182.95 135.01 184.48 133.97 184.48C133.48 184.48 133.17 184.12 133.72 183.2L138.69 174.51L140.6 174.51L141.27 173.41L139.37 173.41L141.58 169.62L139.25 169.62L137.04 173.41L134.95 173.41L134.28 174.51L136.42 174.51L131.76 182.59C130.78 184.3 131.45 185.89 133.35 185.89C134.52 185.89 135.75 185.15 137.04 184.05L136.12 185.64L138.45 185.64L142.01 179.53C145.57 175.06 147.16 175.62 146.18 177.33L143.17 182.59C142.19 184.3 142.87 185.89 144.77 185.89C146.18 185.89 147.78 184.79 149.25 183.32C149.25 184.85 150.42 185.95 152.32 185.95ZM154.22 177.57C155.57 175.25 157.96 175.68 156.55 178.06L156.25 178.61C155.14 180.51 153.61 180.45 152.75 180.14L154.22 177.57Z" fill="#FFFFFF" fill-opacity="1.000000" fill-rule="nonzero"/>
		<path id="Vector" d="M222.9 180.87L222.71 181.06C221.05 183.01 219.4 184.54 218.35 184.54C217.86 184.54 217.56 184.18 218.11 183.26L225.96 169.68L223.63 169.68L220.19 175.55C219.77 174.88 219.03 174.33 218.05 174.33C216.82 174.33 215.04 175.31 214.06 177.02L211.79 180.94C211.73 180.94 211.66 180.87 211.66 180.87L211.48 181.06C209.82 183.01 208.17 184.54 207.12 184.54C206.63 184.54 206.33 184.18 206.88 183.26L210.25 177.39C211.23 175.62 210.31 174.33 209.03 174.33C208.04 174.33 206.94 174.88 205.77 176.04L206.63 174.52L204.3 174.52L200.56 180.94C200.49 180.87 200.43 180.81 200.31 180.81L200.13 181C198.47 182.95 196.81 184.48 195.77 184.48C195.28 184.48 194.97 184.12 195.52 183.2L199.27 176.66L198.1 176.66C198.16 175.68 197.18 174.33 195.65 174.33C194.42 174.33 192.64 175.31 191.66 177.02L189.39 180.87L189.26 181C187.61 182.95 185.95 184.48 184.91 184.48C184.42 184.48 184.11 184.12 184.66 183.2L186.99 179.16C187.79 177.76 187.42 176.96 186.69 176.04L185.4 174.45C185.09 174.03 185.09 173.54 185.52 173.11L184.29 171.76C182.94 172.93 182.88 174.27 183.68 175.31L183.86 175.55C182.82 177.02 181.47 178.98 179.94 180.75C180 180.81 180.06 180.87 180.12 180.94C178.22 183.14 176.56 184.54 174.72 185.34L177.66 180.32L175.39 180.32L175.15 180.75C173.92 182.89 172.51 184.48 170.67 184.48C169.07 184.48 168.77 182.89 170.18 180.51L170.85 179.35C171.28 179.41 171.71 179.47 172.2 179.47C180.49 179.47 184.48 168.4 177.17 168.4C175.89 168.4 174.35 169.32 173.31 171.09L169.69 177.33C168.34 176.59 167.6 175.31 167.6 174.03C167.6 172.93 168.09 171.89 169.07 171.09L168.34 169.75C166.68 170.91 165.94 172.5 165.94 174.09C165.94 175.92 166.99 177.69 168.89 178.67L168.21 179.9C166.56 182.71 166.86 185.83 170.18 185.83C171.16 185.83 172.02 185.52 172.69 185.09L172.08 186.13C168.95 187.11 166.99 188.33 166.99 190.11C166.99 192.31 170.42 192.8 172.08 189.92L173.86 186.87C176.25 186.13 178.65 184.48 181.22 181.49C181.16 181.42 181.16 181.36 181.1 181.24C182.14 180.02 183 178.86 184.78 176.47L185.09 176.84C185.4 177.21 185.52 177.69 185.21 178.18L182.76 182.46C181.78 184.18 182.45 185.77 184.35 185.77C185.52 185.77 186.81 185.03 188.04 183.93C188.04 184.97 188.71 185.77 190.06 185.77C190.98 185.77 192.15 185.16 193.31 184.24C193.44 185.16 194.17 185.77 195.34 185.77C196.44 185.77 197.67 185.09 198.84 184.05L197.98 185.52L200.31 185.52L203.87 179.35C207.43 174.88 209.03 175.49 207.98 177.21L204.97 182.46C203.99 184.18 204.67 185.77 206.57 185.77C207.8 185.77 209.15 184.91 210.5 183.75C210.38 184.91 211.11 185.77 212.52 185.77C213.44 185.77 214.61 185.16 215.78 184.24C215.9 185.16 216.64 185.77 217.8 185.77C219.7 185.77 221.91 183.69 223.88 181.49C223.63 181.36 223.2 181 222.9 180.87ZM175.09 172.19C175.76 171.03 176.56 170.48 177.17 170.48C180.86 170.48 178.28 178 172.2 178L171.71 178L175.09 172.19ZM170.12 189.68C169.63 190.54 168.83 190.41 168.83 189.8C168.83 189.19 169.38 188.52 171.16 187.85L170.12 189.68ZM194.48 181.24C193.07 183.44 191.66 184.48 190.74 184.48C190.25 184.48 189.94 184.12 190.49 183.2L193.74 177.57C194.97 175.43 197.49 175.98 196.32 178.06L194.48 181.24ZM217 181.12C215.59 183.44 214.18 184.48 213.2 184.48C212.71 184.48 212.4 184.12 212.95 183.2L216.21 177.57C217.43 175.43 219.95 175.98 218.78 178.06L217 181.12Z" fill="#FFFFFF" fill-opacity="1.000000" fill-rule="nonzero"/>
		<path id="Vector" d="M145.14 202.89L144.95 203.07C143.3 205.03 141.64 206.56 140.6 206.56C140.11 206.56 139.8 206.19 140.35 205.27L143.73 199.4C144.71 197.63 143.79 196.35 142.5 196.35C141.52 196.35 140.41 196.9 139.25 198.06L140.11 196.53L137.77 196.53L134.03 203.01C133.91 202.95 133.85 202.89 133.72 202.83L133.54 203.01C132.5 204.17 131.21 204.72 130.04 204.72L132.25 200.93C133.66 198.49 132.37 196.22 130.16 196.22C128.38 196.22 126.97 196.96 125.62 199.28L124.46 201.24L123.47 202.95C123.41 202.89 123.35 202.89 123.29 202.83L123.11 203.01C121.2 205.21 119.55 206.62 117.71 207.41L124.09 196.53L121.76 196.53L117.64 203.68C115.86 205.33 114.45 206.25 114.02 206.07C113.47 205.82 114.02 204.97 114.33 204.48L118.87 196.59L116.54 196.59L112.8 203.01C112.73 202.95 112.67 202.95 112.61 202.89L112.43 203.07C110.77 205.03 109.11 206.56 108.07 206.56C107.58 206.56 107.27 206.19 107.82 205.27L111.2 199.4C112.18 197.63 111.26 196.35 109.97 196.35C108.99 196.35 107.89 196.9 106.72 198.06L107.58 196.53L105.25 196.53L101.5 202.95C101.44 202.89 101.38 202.83 101.26 202.83L101.07 203.01C99.42 204.97 97.76 206.5 96.72 206.5C96.23 206.5 95.92 206.13 96.47 205.21L100.21 198.67L98.86 198.67C98.93 197.69 97.94 196.35 96.41 196.35C95.18 196.35 93.4 197.32 92.42 199.04L90.03 203.19C89.84 203.07 89.66 202.95 89.54 202.89L89.35 203.07C87.69 205.03 85.61 206.56 83.34 206.56C81.74 206.56 80.76 204.97 82.17 202.58L82.85 201.42C83.28 201.48 83.71 201.54 84.2 201.54C86.65 201.54 89.47 200.26 91.32 197.08C91.99 195.92 92.24 194.88 92.24 193.96C92.24 191.88 90.89 190.47 89.17 190.47C87.88 190.47 86.34 191.39 85.3 193.17L81.68 199.4C80.33 198.67 79.59 197.38 79.59 196.1C79.59 195 80.08 193.96 81.07 193.17L80.33 191.82C78.67 192.98 77.94 194.57 77.94 196.16C77.94 198 78.98 199.77 80.88 200.75L80.21 201.97C78.55 204.78 79.53 207.9 82.85 207.9C85.42 207.9 87.39 206.74 88.98 205.21C88.49 206.68 89.23 207.9 90.89 207.9C91.81 207.9 92.97 207.29 94.14 206.37C94.26 207.29 95 207.9 96.16 207.9C97.27 207.9 98.5 207.23 99.66 206.19L98.8 207.66L101.14 207.66L104.69 201.48C108.25 197.02 109.85 197.63 108.81 199.34L105.8 204.6C104.82 206.31 105.49 207.9 107.4 207.9C108.62 207.9 110.03 207.05 111.38 205.82C111.08 207.11 111.69 207.9 112.86 207.9C113.96 207.9 115.25 206.99 116.29 206.01L115.01 208.21C111.88 209.13 109.85 210.41 109.85 212.18C109.85 214.38 113.29 214.87 114.94 212L116.72 208.94C118.69 208.33 120.59 207.11 122.62 205.15C122.31 208.39 126.6 209.13 129.24 205.82L129.73 205.82C130.59 205.82 131.76 205.52 132.8 204.91L131.27 207.6L133.6 207.6L137.16 201.42C140.72 196.96 142.32 197.57 141.27 199.28L138.26 204.54C137.28 206.25 137.96 207.84 139.86 207.84C141.76 207.84 143.97 205.76 145.94 203.56C145.87 203.38 145.45 203.01 145.14 202.89ZM87.2 194.2C87.88 193.04 88.68 192.49 89.29 192.49C90.15 192.49 90.58 193.04 90.58 193.9C90.58 196.04 87.94 199.95 84.32 199.95L83.83 199.95L87.2 194.2ZM95.43 203.25C94.02 205.46 92.6 206.5 91.68 206.5C91.19 206.5 90.89 206.13 91.44 205.21L94.69 199.59C95.92 197.45 98.43 198 97.27 200.08L95.43 203.25ZM113.1 211.69C112.61 212.55 111.81 212.43 111.81 211.82C111.81 211.2 112.37 210.53 114.15 209.86L113.1 211.69ZM128.81 203.01L128.69 203.01C127.95 203.01 127.34 203.62 127.34 204.42C127.34 204.72 127.4 204.97 127.59 205.21L127.59 205.27C126.48 207.17 123.84 206.8 125.19 204.36L126.97 201.3L128.08 199.4C129.73 196.65 131.94 197.75 130.53 200.14L128.81 203.01Z" fill="#FFFFFF" fill-opacity="1.000000" fill-rule="nonzero"/>
		<path id="Vector" d="M199.08 203.68C198.96 203.32 198.53 202.95 198.22 202.89L198.04 203.07C197.18 204.05 196.14 204.97 195.22 205.58C195.95 203.38 195.77 199.95 197.24 197.02L195.52 196.1C194.54 197.45 192.46 200.44 190.37 202.89L190.18 203.07C188.53 205.03 186.87 206.56 185.83 206.56C185.34 206.56 184.85 206.07 184.85 204.97L184.85 203.99C186.5 204.17 188.22 203.13 189.33 201.24L189.94 200.14C192.09 196.41 188.59 195.18 186.2 197.39L189.51 191.64L187.18 191.64L180.55 203.13C180.43 203.01 180.24 202.89 180.12 202.83L179.94 203.01C178.28 204.97 176.13 206.5 174.47 206.5C173.06 206.5 172.2 205.58 173.25 203.75L175.64 199.59C176.99 197.26 179.38 197.69 177.97 200.08L177.66 200.63L179.57 200.63L179.87 200.08C181.1 197.94 179.94 196.35 178.03 196.35C176.13 196.35 174.66 197.32 173.68 199.04L171.41 202.95C171.34 202.95 171.28 202.89 171.28 202.89L171.1 203.07C169.44 205.03 167.78 206.56 166.74 206.56C166.25 206.56 165.94 206.19 166.5 205.27L171.47 196.59L169.13 196.59L165.02 203.81C163.24 205.4 161.89 206.31 161.46 206.13C160.91 205.89 161.46 205.03 161.77 204.54L166.31 196.65L163.98 196.65L159.44 204.42C158.95 204.85 158.39 205.27 157.96 205.64C158.7 203.44 158.52 200.01 159.99 197.08L158.27 196.16C157.29 197.51 151.95 204.6 149.8 207.05C149.99 207.35 150.35 207.6 150.66 207.84C152.01 206.31 156.43 200.63 157.23 199.53C156.31 201.91 156.8 206.25 154.59 206.25C153.79 206.25 153.48 205.4 153.48 205.4L152.01 206.13C152.01 206.13 152.44 208.03 154.59 208.03C154.83 208.03 155.02 208.03 155.26 207.96L155.33 207.96C156.49 207.78 157.66 207.29 158.76 206.5C158.76 207.41 159.31 208.03 160.3 208.03C161.59 208.03 163 206.86 164.1 205.82C163.86 207.05 164.59 208.03 166.07 208.03C167.54 208.03 169.13 206.86 170.67 205.33C170.67 206.86 171.9 208.03 173.8 208.03C175.7 208.03 177.54 206.99 179.2 205.58L177.91 207.84L180.24 207.84L182.88 203.26L182.88 205.09C182.88 207.05 183.25 208.09 185.15 208.09C187.05 208.09 189.26 206.01 191.23 203.81C192.58 202.28 193.68 200.69 194.54 199.59C193.62 201.97 194.11 206.31 191.9 206.31C191.11 206.31 190.8 205.46 190.8 205.46L189.33 206.19C189.33 206.19 189.75 208.09 191.9 208.09C192.15 208.09 192.33 208.09 192.58 208.03L192.64 208.03C194.97 207.6 197.36 205.7 199.08 203.68ZM183.62 201.85L184.29 200.69C186.99 196.96 188.83 198 187.98 199.4L186.87 201.3C186.2 202.52 184.17 203.38 183.62 201.85Z" fill="#FFFFFF" fill-opacity="1.000000" fill-rule="nonzero"/>
		<path id="Vector" d="M199.02 205.27C198.29 205.27 197.67 205.89 197.67 206.62C197.67 207.35 198.22 207.96 199.02 207.96C199.76 207.96 200.37 207.41 200.37 206.62C200.37 205.89 199.76 205.27 199.02 205.27Z" fill="#FFFFFF" fill-opacity="1.000000" fill-rule="nonzero"/>
		<path id="Vector" d="M199.14 204.36L201.48 204.36L208.78 191.7L206.45 191.7L199.14 204.36Z" fill="#FFFFFF" fill-opacity="1.000000" fill-rule="nonzero"/>
		<path id="Vector" d="M49.21 169.75C49.21 169.93 49.15 170.11 49.09 170.3C49.03 170.48 48.91 170.66 48.79 170.79C48.66 170.91 48.48 171.03 48.29 171.15C48.11 171.21 47.86 171.27 47.62 171.27C47.31 171.27 47.07 171.21 46.82 171.09C46.58 170.97 46.33 170.85 46.15 170.66C45.96 170.48 45.9 170.3 45.78 170.05C45.72 169.81 45.66 169.56 45.66 169.26C45.66 168.71 45.78 168.28 45.96 167.79C46.15 167.36 46.39 166.93 46.76 166.63C46.88 166.51 47.07 166.32 47.25 166.2C47.43 166.08 47.62 165.95 47.8 165.89C47.99 165.83 48.11 165.71 48.23 165.65C48.36 165.59 48.42 165.59 48.48 165.53L49.34 166.75C49.21 166.81 49.03 166.87 48.85 166.99C48.66 167.06 48.48 167.18 48.29 167.3C48.11 167.42 47.99 167.61 47.86 167.79C47.74 167.97 47.68 168.16 47.68 168.4C48.11 168.4 48.42 168.52 48.72 168.77C49.09 168.95 49.21 169.32 49.21 169.75ZM54.06 169.75C54.06 169.93 54 170.11 53.94 170.3C53.88 170.48 53.76 170.66 53.63 170.79C53.51 170.91 53.33 171.03 53.14 171.15C52.96 171.21 52.71 171.27 52.47 171.27C52.16 171.27 51.91 171.21 51.67 171.09C51.42 170.97 51.18 170.85 50.99 170.66C50.87 170.48 50.75 170.3 50.63 170.05C50.56 169.81 50.5 169.56 50.5 169.26C50.5 168.71 50.63 168.28 50.81 167.79C50.99 167.36 51.24 166.93 51.61 166.63C51.73 166.51 51.91 166.32 52.1 166.2C52.28 166.08 52.47 165.95 52.65 165.89C52.84 165.83 52.96 165.71 53.08 165.65C53.2 165.59 53.27 165.59 53.33 165.53L54.19 166.75C54.06 166.81 53.88 166.87 53.69 166.99C53.51 167.06 53.33 167.18 53.14 167.3C52.96 167.42 52.84 167.61 52.71 167.79C52.59 167.97 52.53 168.16 52.53 168.4C52.96 168.4 53.27 168.52 53.57 168.77C53.88 168.95 54.06 169.32 54.06 169.75Z" fill="#FFFFFF" fill-opacity="1.000000" fill-rule="nonzero"/>
		<path id="Vector" d="M216.76 205.76C216.76 205.58 216.82 205.4 216.88 205.21C216.94 205.03 217.06 204.85 217.19 204.72C217.31 204.6 217.49 204.48 217.68 204.36C217.86 204.3 218.11 204.23 218.35 204.23C218.66 204.23 218.91 204.3 219.15 204.42C219.4 204.54 219.64 204.66 219.83 204.85C220.01 205.03 220.07 205.21 220.19 205.46C220.26 205.7 220.32 205.95 220.32 206.25C220.32 206.8 220.19 207.23 220.01 207.72C219.83 208.15 219.58 208.58 219.21 208.88C219.09 209 218.91 209.19 218.72 209.31C218.54 209.43 218.35 209.55 218.17 209.62C217.99 209.68 217.86 209.8 217.74 209.86C217.62 209.92 217.56 209.92 217.49 209.98L216.64 208.76C216.76 208.7 216.94 208.64 217.13 208.51C217.31 208.45 217.49 208.33 217.68 208.21C217.86 208.09 217.99 207.9 218.11 207.72C218.23 207.54 218.29 207.35 218.29 207.11C217.86 207.11 217.56 206.99 217.25 206.74C216.94 206.56 216.76 206.19 216.76 205.76ZM211.97 205.76C211.97 205.58 212.03 205.4 212.09 205.21C212.16 205.03 212.28 204.85 212.4 204.72C212.52 204.6 212.71 204.48 212.89 204.36C213.08 204.3 213.32 204.23 213.57 204.23C213.87 204.23 214.12 204.3 214.36 204.42C214.61 204.54 214.86 204.66 215.04 204.85C215.16 205.03 215.29 205.21 215.41 205.46C215.47 205.7 215.53 205.95 215.53 206.25C215.53 206.8 215.41 207.23 215.22 207.72C215.04 208.15 214.79 208.58 214.43 208.88C214.3 209 214.12 209.19 213.94 209.31C213.75 209.43 213.57 209.55 213.38 209.62C213.2 209.68 213.08 209.8 212.95 209.86C212.83 209.92 212.77 209.92 212.71 209.98L211.85 208.76C212.03 208.7 212.16 208.64 212.34 208.51C212.52 208.45 212.71 208.33 212.89 208.21C213.08 208.09 213.2 207.9 213.32 207.72C213.44 207.54 213.51 207.35 213.51 207.11C213.08 207.11 212.77 206.99 212.46 206.74C212.09 206.56 211.97 206.19 211.97 205.76Z" fill="#FFFFFF" fill-opacity="1.000000" fill-rule="nonzero"/>
	</g>
</svg>
